<svg width="784" height="726" viewBox="0 0 784 726" fill="none" xmlns="http://www.w3.org/2000/svg">
<g filter="url(#filter0_i)">
<circle cx="400" cy="405" r="266" transform="rotate(-45 400 405)" fill="#A57110" fill-opacity="0.5"/>
</g>
<rect x="0.256653" y="424.418" width="600" height="30" transform="rotate(-45 0.256653 424.418)" fill="white"/>
<rect x="42.6844" y="466.846" width="600" height="30" transform="rotate(-45 42.6844 466.846)" fill="white"/>
<rect x="85.1108" y="509.272" width="600" height="30" transform="rotate(-45 85.1108 509.272)" fill="white"/>
<rect x="127.537" y="551.699" width="600" height="30" transform="rotate(-45 127.537 551.699)" fill="white"/>
<rect x="169.964" y="594.125" width="600" height="30" transform="rotate(-45 169.964 594.125)" fill="white"/>
<rect x="212.39" y="636.552" width="600" height="30" transform="rotate(-45 212.39 636.552)" fill="white"/>
<rect x="254.816" y="678.978" width="600" height="30" transform="rotate(-45 254.816 678.978)" fill="white"/>
<rect x="297.243" y="721.404" width="600" height="30" transform="rotate(-45 297.243 721.404)" fill="white"/>
<rect x="339.669" y="763.831" width="600" height="30" transform="rotate(-45 339.669 763.831)" fill="white"/>
<defs>
<filter id="filter0_i" x="23.8192" y="28.8192" width="752.362" height="752.362" filterUnits="userSpaceOnUse" color-interpolation-filters="sRGB">
<feFlood flood-opacity="0" result="BackgroundImageFix"/>
<feBlend mode="normal" in="SourceGraphic" in2="BackgroundImageFix" result="shape"/>
<feColorMatrix in="SourceAlpha" type="matrix" values="0 0 0 0 0 0 0 0 0 0 0 0 0 0 0 0 0 0 127 0" result="hardAlpha"/>
<feOffset/>
<feGaussianBlur stdDeviation="5"/>
<feComposite in2="hardAlpha" operator="arithmetic" k2="-1" k3="1"/>
<feColorMatrix type="matrix" values="0 0 0 0 0 0 0 0 0 0 0 0 0 0 0 0 0 0 0.25 0"/>
<feBlend mode="normal" in2="shape" result="effect1_innerShadow"/>
</filter>
</defs>
</svg>
