<svg width="650" height="650" viewBox="0 0 650 650" fill="none" xmlns="http://www.w3.org/2000/svg">
<circle cx="25" cy="25" r="25" fill="#A57110"/>
<circle cx="25" cy="125" r="25" fill="#A57110"/>
<circle cx="25" cy="225" r="25" fill="#A57110"/>
<circle cx="25" cy="325" r="25" fill="#A57110"/>
<circle cx="25" cy="425" r="25" fill="#A57110"/>
<circle cx="25" cy="525" r="25" fill="#A57110"/>
<circle cx="25" cy="625" r="25" fill="#A57110"/>
<circle cx="125" cy="25" r="25" fill="#A57110"/>
<circle cx="125" cy="125" r="25" fill="#A57110"/>
<circle cx="125" cy="225" r="25" fill="#A57110"/>
<circle cx="125" cy="325" r="25" fill="#A57110"/>
<circle cx="125" cy="425" r="25" fill="#A57110"/>
<circle cx="125" cy="525" r="25" fill="#A57110"/>
<circle cx="125" cy="625" r="25" fill="#A57110"/>
<circle cx="225" cy="25" r="25" fill="#A57110"/>
<circle cx="225" cy="125" r="25" fill="#A57110"/>
<circle cx="225" cy="225" r="25" fill="#A57110"/>
<circle cx="225" cy="325" r="25" fill="#A57110"/>
<circle cx="225" cy="425" r="25" fill="#A57110"/>
<circle cx="225" cy="525" r="25" fill="#A57110"/>
<circle cx="225" cy="625" r="25" fill="#A57110"/>
<circle cx="325" cy="25" r="25" fill="#A57110"/>
<circle cx="325" cy="125" r="25" fill="#A57110"/>
<circle cx="325" cy="225" r="25" fill="#A57110"/>
<circle cx="325" cy="325" r="25" fill="#A57110"/>
<circle cx="325" cy="425" r="25" fill="#A57110"/>
<circle cx="325" cy="525" r="25" fill="#A57110"/>
<circle cx="325" cy="625" r="25" fill="#A57110"/>
<circle cx="425" cy="25" r="25" fill="#A57110"/>
<circle cx="425" cy="125" r="25" fill="#A57110"/>
<circle cx="425" cy="225" r="25" fill="#A57110"/>
<circle cx="425" cy="325" r="25" fill="#A57110"/>
<circle cx="425" cy="425" r="25" fill="#A57110"/>
<circle cx="425" cy="525" r="25" fill="#A57110"/>
<circle cx="425" cy="625" r="25" fill="#A57110"/>
<circle cx="525" cy="25" r="25" fill="#A57110"/>
<circle cx="525" cy="125" r="25" fill="#A57110"/>
<circle cx="525" cy="225" r="25" fill="#A57110"/>
<circle cx="525" cy="325" r="25" fill="#A57110"/>
<circle cx="525" cy="425" r="25" fill="#A57110"/>
<circle cx="525" cy="525" r="25" fill="#A57110"/>
<circle cx="525" cy="625" r="25" fill="#A57110"/>
<circle cx="625" cy="25" r="25" fill="#A57110"/>
<circle cx="625" cy="125" r="25" fill="#A57110"/>
<circle cx="625" cy="225" r="25" fill="#A57110"/>
<circle cx="625" cy="325" r="25" fill="#A57110"/>
<circle cx="625" cy="425" r="25" fill="#A57110"/>
<circle cx="625" cy="525" r="25" fill="#A57110"/>
<circle cx="625" cy="625" r="25" fill="#A57110"/>
</svg>
